<?xml version="1.0" encoding="utf-8"?>
<!-- Generator: Adobe Illustrator 25.4.1, SVG Export Plug-In . SVG Version: 6.00 Build 0)  -->
<svg version="1.1" xmlns="http://www.w3.org/2000/svg" xmlns:xlink="http://www.w3.org/1999/xlink" x="0px" y="0px"
	 viewBox="0 0 142.48 133.32" style="enable-background:new 0 0 142.48 133.32;" xml:space="preserve">
<style type="text/css">
	.st0{fill:#5C9ED6;}
	.st1{fill:#ED709C;stroke:#FFFFFF;stroke-width:2;stroke-miterlimit:10;}
	.st2{fill:url(#SVGID_1_);}
	.st3{fill:#010102;}
	.st4{fill:#FFFFFF;}
	.st5{display:none;}
	.st6{opacity:0.72;fill:#7179B9;}
	.st7{font-family:'RecipekoreaM';}
	.st8{font-size:12px;}
</style>
<g id="icon">
	<path class="st0" d="M128.01,66.43l-36.59,9.51c-2.6,0.68-5.14-1.29-5.14-3.98V37.79c0-2.69,2.54-4.65,5.14-3.98l36.59,9.51
		c1.81,0.47,3.07,2.1,3.07,3.98v15.16C131.08,64.33,129.82,65.96,128.01,66.43z"/>
	<path class="st1" d="M131.35,52.73l-36.59,9.51c-2.6,0.68-5.14-1.29-5.14-3.98V24.08c0-2.69,2.54-4.65,5.14-3.98l36.59,9.51
		c1.81,0.47,3.07,2.1,3.07,3.98v15.16C134.42,50.62,133.16,52.26,131.35,52.73z"/>
	<linearGradient id="SVGID_1_" gradientUnits="userSpaceOnUse" x1="7.0584" y1="66.6586" x2="122.8031" y2="66.6586">
		<stop  offset="0" style="stop-color:#F298C0"/>
		<stop  offset="1" style="stop-color:#5C9ED6"/>
	</linearGradient>
	<path class="st2" d="M110.97,124.53H18.89c-6.51,0-11.83-5.32-11.83-11.83V20.62c0-6.51,5.32-11.83,11.83-11.83h92.09
		c6.51,0,11.83,5.32,11.83,11.83v92.09C122.8,119.21,117.48,124.53,110.97,124.53z"/>
	<path class="st3" d="M77.75,103.29c-0.01,0-0.02,0.01-0.03,0.01C77.74,103.29,77.75,103.29,77.75,103.29z"/>
	<path id="XMLID_1_" class="st4" d="M105.85,87.63c-0.12-0.06-0.25-0.12-0.37-0.19c-0.13-0.07-0.39-0.18-0.67-0.28
		c-0.29-0.11-0.59-0.21-0.9-0.29c0.21,0.05,0.42,0.12,0.63,0.19c-0.36-0.13-0.7-0.24-0.81-0.25c-2.32-0.32-4.12-2.22-4.32-4.58
		c-0.01-0.14-0.04-0.28-0.04-0.42c0-0.69,0.14-1.34,0.39-1.94c0.01-0.01,0.01-0.03,0.02-0.04c1.7-4.37,2.64-9.11,2.64-14.08
		c0-0.67-0.02-1.34-0.05-2.01c-0.13-2.55-0.51-5.03-1.11-7.42c-4.21-16.87-19.47-29.38-37.65-29.38
		c-21.43,0-38.81,17.38-38.81,38.81c0,21.43,17.38,38.81,38.81,38.81c4.48,0,8.79-0.77,12.79-2.17c0.01,0,0.02-0.01,0.03-0.01
		c2.8-0.98,5.44-2.28,7.9-3.84c0.18-0.12,0.37-0.23,0.55-0.35c0.07-0.05,0.13-0.09,0.2-0.14c0.6-0.39,1.31-0.62,2.08-0.62
		c0.6,0,1.17,0.14,1.68,0.39c0.06,0.03,0.12,0.05,0.18,0.09c0.47,0.31,1.22,0.91,1.25,0.92c3.05,2.29,6.8,3.71,10.87,3.88
		c0.28,0.01,0.55,0.04,0.82,0.04s0.55-0.03,0.82-0.04c4.07-0.41,7.24-3.85,7.24-8.02C110.02,91.65,108.33,89,105.85,87.63z
		 M84.54,74.47c-0.2,0.49-0.43,0.97-0.66,1.44c-3.73,7.43-11.41,12.53-20.28,12.53c-12.53,0-22.68-10.15-22.68-22.68
		c0-12.53,10.15-22.68,22.68-22.68s22.68,10.15,22.68,22.68C86.27,68.84,85.66,71.78,84.54,74.47z"/>
</g>
<g id="text" class="st5">
	<text transform="matrix(1 0 0 1 16.3863 142.8834)" class="st6 st7 st8">ARCHIVE_SNS</text>
</g>
</svg>
